<?xml version="1.0" encoding="UTF-8"?>
<svg width="23px" height="18px" viewBox="0 0 23 18" version="1.1" xmlns="http://www.w3.org/2000/svg" xmlns:xlink="http://www.w3.org/1999/xlink">
    <!-- Generator: Sketch 49.2 (51160) - http://www.bohemiancoding.com/sketch -->
    <title>icon-quote-marks</title>
    <desc>Created with Sketch.</desc>
    <defs></defs>
    <g id="Page-1" stroke="none" stroke-width="1" fill="none" fill-rule="evenodd" opacity="0.6">
        <g id="icon-quote-marks" fill="#3eb0ef">
            <path d="M12.162,10.988 C12.162,9.803 12.344,8.655 12.709,7.543 C13.0844617,6.41133897 13.6738058,5.3623336 14.445,4.453 C15.238,3.505 16.268,2.653 17.535,1.896 C18.802,1.14 20.347,0.516 22.17,0.023 L22.17,2.922 C21.4461914,3.18141062 20.7344664,3.47337467 20.037,3.797 C19.417,4.089 18.902,4.403 18.492,4.74 C18.1080544,5.0455782 17.7914284,5.42723179 17.562,5.861 C17.352,6.271 17.248,6.75 17.248,7.297 C17.248,7.661 17.348,7.953 17.548,8.172 C17.749,8.391 18.005,8.6 18.314,8.801 C18.624,9.001 18.952,9.206 19.299,9.416 C19.645,9.626 19.973,9.89 20.283,10.209 C20.593,10.528 20.848,10.934 21.049,11.426 C21.249,11.918 21.349,12.538 21.349,13.286 C21.349,14.543 20.962,15.5 20.187,16.156 C19.413,16.813 18.451,17.141 17.303,17.141 C15.717,17.141 14.463,16.594 13.543,15.5 C12.623,14.406 12.163,12.902 12.163,10.988 L12.162,10.988 Z M0.459,10.988 C0.459,9.803 0.641,8.655 1.006,7.543 C1.38146165,6.41133897 1.97080577,5.3623336 2.742,4.453 C3.535,3.505 4.565,2.653 5.832,1.896 C7.099,1.14 8.644,0.516 10.467,0.023 L10.467,2.922 C9.647,3.214 8.931,3.505 8.32,3.797 C7.71,4.089 7.2,4.403 6.79,4.74 C6.40550305,5.04501505 6.08877307,5.42679387 5.86,5.861 C5.65,6.271 5.545,6.75 5.545,7.297 C5.545,7.661 5.645,7.953 5.845,8.172 C6.046,8.391 6.301,8.6 6.611,8.801 C6.921,9.001 7.249,9.206 7.596,9.416 C7.942,9.626 8.27,9.89 8.58,10.209 C8.89,10.528 9.145,10.934 9.346,11.426 C9.546,11.918 9.646,12.538 9.646,13.286 C9.646,14.543 9.259,15.5 8.484,16.156 C7.71,16.813 6.748,17.141 5.6,17.141 C4.014,17.141 2.76,16.594 1.84,15.5 C0.92,14.406 0.459,12.902 0.459,10.988 Z" id="Shape"></path>
        </g>
    </g>
</svg>